<svg xmlns="http://www.w3.org/2000/svg" xmlns:svg="http://www.w3.org/2000/svg" xmlns:xlink="http://www.w3.org/1999/xlink" id="svg3229" width="100%" height="100%" class="lds-money" preserveAspectRatio="xMidYMid" viewBox="0 0 100 100"><style id="style6589">.st0{fill:#66bb6a}</style><defs id="defs691"><clipPath id="lds-money-cpid-51929356b3473"><rect id="rect8119" width="100" height="82.235" x="0" y="0"/></clipPath></defs><path id="path4683" fill="#eaf9ed" stroke="#eaf9ed" stroke-width="1" d="M85.529,75.177H14.471c-2.469,0-4.471,2.002-4.471,4.471h80C90,77.179,87.998,75.177,85.529,75.177z" ng-attr-fill="{{config.c4}}" ng-attr-stroke="{{config.c4}}"/><g id="g973" clip-path="url(#lds-money-cpid-51929356b3473)" ng-attr-clip-path="url(#{{config.cpid}})"><g id="g7676" transform="translate(0 75)"><animateTransform id="animateTransform6035" attributeName="transform" begin="0s" calcMode="linear" dur="1s" keyTimes="0;1" repeatCount="indefinite" type="translate" values="0 0 ;0 150"/><g id="Layer_2" transform="translate(0 -75)"><circle id="circle9981" cx="50" cy="40" r="35" class="st0"/><defs id="defs9529"><circle id="SVGID_18_" cx="78.6" cy="78.6" r="78.6"/></defs><clipPath id="SVGID_1_"><use id="use7689" overflow="visible" xlink:href="#SVGID_18_"/></clipPath><path id="path9794" fill="#fff" d="M89.8 84.2c.3.7 1 1.3 1 1.3 13.9 1.7 33.6-.2 48.6-2.2-8.6 18.5-24 30.8-38.1 30.8-26.5 0-46.9-32.1-46.9-32.1 8.2-7.2 21.7-30.8 41.2-30.8s28 10.7 28 10.7l2.2-3.5s-9.1-31.9-34.9-31.9-53.2 42.3-69.2 52c0 0 22 52.2 70.2 52.2 40.4 0 50.6-38.6 52.5-48.2 5.4-.8 9.9-1.6 12.8-2.1 1-2.2 2.1-6.1 1.3-11.3-16.1 6.2-40.5 13.2-69.1 13.2-.1 0 0 1 .4 1.9z" clip-path="url(#SVGID_1_)" transform="matrix(0.47328001260757446 0 0 0.47574734687805176 10.464872360229492 2.0481481552124023)"/></g></g></g><path id="path7605" fill="#eaf9ed" stroke="#eaf9ed" stroke-width="1" d="M14.471,84.823h71.058c2.469,0,4.471-2.002,4.471-4.471v-0.704H10v0.704C10,82.821,12.002,84.823,14.471,84.823z" ng-attr-fill="{{config.c4}}" ng-attr-stroke="{{config.c4}}"/></svg>